<svg viewBox="0 0 151.5002 134.89366" version="1.1" id="svg1"
    xmlns:xlink="http://www.w3.org/1999/xlink" xmlns="http://www.w3.org/2000/svg" xmlns:svg="http://www.w3.org/2000/svg">
    <defs id="defs1">
        <linearGradient id="linearGradient11">
            <stop style="stop-color:#e6f10c;stop-opacity:1;" offset="0" id="stop12" />
            <stop style="stop-color:#fc950f;stop-opacity:1;" offset="1" id="stop13" />
        </linearGradient>
        <linearGradient xlink:href="#linearGradient11" id="linearGradient13" x1="241.88681" y1="79.722313"
            x2="241.88681" y2="153.43526" gradientUnits="userSpaceOnUse"
            gradientTransform="translate(4.3211875,27.231669)" />
        <linearGradient xlink:href="#linearGradient11" id="linearGradient12" gradientUnits="userSpaceOnUse"
            x1="241.88681" y1="79.722313" x2="241.88681" y2="153.43526"
            gradientTransform="translate(4.3211875,27.231669)" />
        <linearGradient xlink:href="#linearGradient11" id="linearGradient14" gradientUnits="userSpaceOnUse"
            x1="241.88681" y1="79.722313" x2="241.88681" y2="153.43526"
            gradientTransform="translate(4.3211875,27.231669)" />
        <filter style="color-interpolation-filters:sRGB" id="filter7" x="-0.23710182" y="-0.084966578"
            width="1.4742036" height="1.1699332">
            <feGaussianBlur stdDeviation="4.0819467" id="feGaussianBlur7" />
        </filter>
        <filter style="color-interpolation-filters:sRGB" id="filter8" x="-0.2550693" y="-0.13689082" width="1.5101386"
            height="1.2737816">
            <feGaussianBlur stdDeviation="4.0819467" id="feGaussianBlur8" />
        </filter>
        <filter style="color-interpolation-filters:sRGB" id="filter9" x="-0.25506958" y="-0.13689054"
            width="1.5101392" height="1.2737811">
            <feGaussianBlur stdDeviation="4.0819467" id="feGaussianBlur9" />
        </filter>
    </defs>
    <g id="layer2" style="display:inline;opacity:0.464" transform="translate(-180.70339,-60.214475)">
        <path id="path5"
            style="display:inline;opacity:1;mix-blend-mode:normal;fill:#000000;fill-opacity:1;stroke:none;stroke-width:0.238552px;stroke-linecap:butt;stroke-linejoin:miter;stroke-opacity:1;filter:url(#filter7)"
            d="m 253.01052,71.998969 -15.38286,26.643608 a 13.685113,13.685113 0 0 0 -1.8335,6.842623 v 79.82625 h 41.31842 V 105.4852 a 13.685382,13.685382 0 0 0 -1.83346,-6.842641 l -15.3825,-26.643556 a 3.9756949,3.9756949 0 0 0 -6.8861,-3.4e-5 z m -3.44324,29.819281 6.88632,11.9276 6.88632,-11.9276 v 69.72008 h -13.77264 z" />
        <path
            style="display:inline;mix-blend-mode:normal;fill:#000000;fill-opacity:1;stroke:none;stroke-width:0.238552px;stroke-linecap:butt;stroke-linejoin:miter;stroke-opacity:1;filter:url(#filter8)"
            d="m 318.43106,185.3112 h -34.43202 v -71.56559 l 37.87522,65.60179 a 3.9758665,3.9758665 0 0 1 -3.4432,5.9638 z"
            id="path7" />
        <path
            style="display:inline;opacity:1;mix-blend-mode:normal;fill:#000000;fill-opacity:1;stroke:none;stroke-width:0.238552px;stroke-linecap:butt;stroke-linejoin:miter;stroke-opacity:1;filter:url(#filter9)"
            d="m 194.47598,185.31135 h 34.43192 l -8e-5,-71.56574 -37.87509,65.60185 a 3.9759269,3.9759269 0 0 0 3.44325,5.96389 z"
            id="path6" />
    </g>
    <g id="g18" transform="matrix(0.90161379,0,0,0.90161379,-145.12324,-54.303)" style="display:inline">
        <g id="g33" transform="translate(-4.3211149,-0.77316508)">
            <path id="path10"
                style="display:inline;opacity:1;fill:#7531bc;fill-opacity:1;stroke:none;stroke-width:0.264583px;stroke-linecap:butt;stroke-linejoin:miter;stroke-opacity:1"
                d="M 238.22224,43.906059 221.16076,73.45708 a 15.178465,15.178465 105.00014 0 0 -2.03357,7.589298 v 88.537072 h 45.82718 V 81.046378 A 15.178763,15.178763 75.00014 0 0 262.92084,73.45706 L 245.85977,43.906097 a 4.4095321,4.4095321 2.8151626e-4 0 0 -7.63753,-3.8e-5 z m -3.81898,33.073221 7.63778,13.229166 7.63777,-13.229166 v 77.3281 h -15.27555 z"
                transform="translate(4.3211868,27.231668)" />
            <path id="rect14"
                style="display:inline;opacity:1;fill:url(#linearGradient12);fill-opacity:1;stroke:none;stroke-width:0.264583"
                d="m 238.72445,104.21095 v 77.3281 H 254 v -77.3281 l -7.63777,13.22916 z" />
        </g>
        <g id="g31" transform="translate(-4.3211149,-0.77316508)">
            <path
                style="display:inline;opacity:1;fill:#7531bc;fill-opacity:1;stroke:none;stroke-width:0.264583px;stroke-linecap:butt;stroke-linejoin:miter;stroke-opacity:1"
                d="m 173.30026,169.58334 h 38.18921 l -9e-5,-79.375166 -42.00811,72.760486 a 4.4097894,4.4097894 59.999948 0 0 3.81899,6.61468 z"
                id="path8" transform="translate(4.3212021,27.231669)" />
            <path id="path15"
                style="font-variation-settings:normal;display:inline;opacity:1;vector-effect:none;fill:url(#linearGradient14);fill-opacity:1;stroke:none;stroke-width:0.264583;stroke-linecap:butt;stroke-linejoin:miter;stroke-miterlimit:4;stroke-dasharray:none;stroke-dashoffset:0;stroke-opacity:1;-inkscape-stroke:none;stop-color:#000000;stop-opacity:1"
                d="m 205.88149,153.15887 -7.63777,13.22865 v 7.93801 h -4.58318 l -4.16461,7.21352 h 16.38556 z" />
        </g>
        <g id="g1" transform="translate(-4.3211149,-0.77316508)" style="display:inline">
            <path
                style="display:inline;fill:#7531bc;fill-opacity:1;stroke:none;stroke-width:0.264583px;stroke-linecap:butt;stroke-linejoin:miter;stroke-opacity:1"
                d="M 310.78162,169.58317 H 272.5923 V 90.208174 l 42.00825,72.760416 a 4.4097224,4.4097224 120 0 1 -3.81893,6.61458 z"
                id="path9" transform="translate(4.3211875,27.231669)" />
            <path id="path12"
                style="font-variation-settings:normal;display:inline;vector-effect:none;fill:url(#linearGradient13);fill-opacity:1;stroke:none;stroke-width:0.264583;stroke-linecap:butt;stroke-linejoin:miter;stroke-miterlimit:4;stroke-dasharray:none;stroke-dashoffset:0;stroke-opacity:1;-inkscape-stroke:none;stop-color:#000000"
                d="m 286.84311,153.15887 7.63777,13.22865 v 7.93801 h 4.58318 l 4.16461,7.21352 h -16.38556 z" />
        </g>
    </g>
</svg>
